<?xml version="1.0" encoding="utf-8"?>
<!-- Generator: Adobe Illustrator 17.0.0, SVG Export Plug-In . SVG Version: 6.00 Build 0)  -->
<!DOCTYPE svg PUBLIC "-//W3C//DTD SVG 1.1//EN" "http://www.w3.org/Graphics/SVG/1.1/DTD/svg11.dtd">
<svg version="1.1" id="Layer_1" xmlns="http://www.w3.org/2000/svg" xmlns:xlink="http://www.w3.org/1999/xlink" x="0px" y="0px"
	 width="272.609px" height="254.125px" viewBox="0 0 272.609 254.125" enable-background="new 0 0 272.609 254.125"
	 xml:space="preserve">
<g>
	<defs>
		<rect id="SVGID_1_" x="27.819" y="39.964" width="223.103" height="214.161"/>
	</defs>
	<clipPath id="SVGID_2_">
		<use xlink:href="#SVGID_1_"  overflow="visible"/>
	</clipPath>
	<path clip-path="url(#SVGID_2_)" fill="#185C85" d="M160.382,211.102c3.569-1.932,6.433-4.693,8.487-7.889
		c1.873,1.089,3.182,1.553,6.044,3.4c21.008,17.508,57.008,12.508,69.008-12.492c-12,19-37,27-57,17c-7-3-12-8-17-14
		c-6-7-7-15-10.083-23.126c-1.163-1.623-2.182-2.12-3.182-1.62c-3,1-9,2-7,4c1.5,3,6.375,2.625,9.984,4.781
		c0.878,1.259,1.832,2.89,2.927,5.04s2.299,4.687,3.44,7.04c2.878,4.621,0.017,0.863-2.601-1.486c-0.5,2.375-1.75,4.625-3.75,6.625
		c-2,3-6,4-9,4c-7,2-14-2-19-8c-2-3-3-6-4-9c-1-5,0-10,2-14c3-6,7-10,13-13c5-2,10-4,16-3c0.75,0.125,1.5,0.266,2.248,0.424
		c0.202,3.304,0.403,6.854,0.49,13.082c0.526,26.24,25.526,47.24,51.526,44.24c5-1,9-3,14-5c4-1,6-5,9-7c3-3,4-6,6-9c2-4,3-8,4-13
		c1-8-2-15-6-22c-5-9-14-14-24-15c-4,0-7,0-11,1c-5,2-9,6-13,9c-2,2-3,4-4,7c-2,6-2,11-2,17c-5-14,3-31,17-36c6-2,12-2,18-2
		c4,0,7,3,11,4c5,2,8,7,12,11c5,8,7,16,7,25c-1,6-3,12-5,18c-5,9-13,16-23,20c-11,4-23,4-34.339-0.089
		c-7.225-2.431-8.738-2.032-9.551-1.157c-1.625,1.75-3.375,3.5-5.375,5.5c-6,5-13,7-20,9c-4,1-9,1-13,0c-15-3-29-12-35.419-26.66
		c-3.835-7.578-5.339-8.469-6.826-9.235c-2.578,0-5.149,0-7.701,0c0.838-2.823,0.674-3.968,0.771-5.971
		c3.587-13.067,1.631-27.351-4.847-38.867c-1.62-2.879-3.405-5.497-1.174-5.281c2.231,0.216,0.76-0.736-5.293-4.225
		c-3.027-1.745-6.781-4.544-10.137-7.299c-1.813-1.134-3.542-2.085-5.172-2.759c-3.172-1.282-6.578-2.203-10.203-2.703
		c-7-1-13,1-19,3c-5,2-10,4-14,8c-3,4-5,9-8,13c-3,5-3,11-2,16c1,6,3,12,7,17c5,6,12,9,19,9c-19-5-25-28-18-44c-7,16,1,41,22,40
		c3-1,7-1,10-4c-14,3-31-6-28-23c1-5,3-9,6-13s8-6,12-7c7-2,14-2,20,1c7,4,12,10,15,17c2,5,3,10,2,16c-2,14-11,24-24,29s-27,2-38-6
		c-5-4-8-8-11-13c-3-4-3-9-4-13c-2-6-2-12-1-18c2-4,2-9,5-13c4-6,9-11,14.287-16.2c4.724-3.503,5.819-4.679,8.098-6.51
		c0-7.928,0-15.853,0-23.417c0.699-1.007,1.806-1.945,10.03-1.876c2.948,0.125,5.887-0.046,8.777-0.491
		c2.89-0.445,5.731-1.164,8.483-2.132c9.325,14.626,10.325,38.626,31.325,42.626c-31-19-25-61,0-82c0.167-2.333,0.167-4.639,0-6.903
		c-0.833-11.319-5.833-21.597-15-29.097c-3-2-7-4-11-6c-6-3-13-3-19-2c-9,1-15,6-21,12c-5,6-7,13-8,21c0,9,3,17,11,23c5,3,10,7,17,6
		c6-1,11-3,16-7c4-4,6-10,5-15c0-4-3-9-8-11c-3-2-7-2-10,0c-2,1-5,5-2,8c2,1,4-1,6,0c3,3,0,6-1,8c-5,5-13,1-17-5c-3-5-2-9,0-14
		c2-4,5-7,9-9c2-1,5-2,7-2c9,0,18,4,22,12c7,12,4,27-7,36c-7,5-15,8-24,7c-10-1-18-6-24-14c-2-3-4-5-5-8c-7-20,2-44,22-52
		c8-3,16-4,24-3c6,1,11,2,16,5c3,3,7,5,10,8c5,4,8,10,11,16c2,4,2,9,3.935,13.552c2.697,0.603,5.377,0.951,8.065,1.323
		c0,2.125-1,4.125-2,5.125c-23,9-40,34-31,59c3,7,8,14,15,18c5,3,11,5,17,5c8,0,15-2,21-8c5-5,8-12,7-19c-1-4-3-8-5-11c-1-1-3-2-5-2
		c5,11,1,26-12,29c-6,1-11-1-16-3c-6-3-9-9-12-15c-2-5-1-9-1-14c1-7,4-12,8-17c7-8,17-12,27-12c12,0,24,5,33,15
		c5,6,9,12,10.407,19.674c1.372,4.467,2.233,5.963,3.093,7.217c1.5-0.516,3-1.141,4.5-1.891c8-4,14-9,18-17c2-5,3-10,4-15
		c1-4-1-7-1-11c-2-11-11-18-20-22c-7-2-13-2-20,1c-5,2-9,6-12,11c-1,2-1.75,4.25-2.125,6.5c-14.875-0.5-30.875-1.5-42.875,8.5
		c11-9,25-8,38.298-7.713c7.901,0.835,9.015-1.537,10.327-3.787c2.625-4.5,6.875-8,12.375-9.5c4-1,7-1,11,0c3,1,5,2,8,4
		c7,5,9,12,10,20c0,9-6,15-10,23c3-6,8-11,7-18c-2,8-7.5,14.25-14.375,17.75c-1.202,0.358-2.559,0.189-4.285-0.848
		c-11.34-26.902-46.34-37.902-69.34-18.902c-4,4-7,8-9,13c-1,3-2,6-3,10s0,8,1,12c3,15,16,22,30,24c-23,7-41-18-37-40c1-7,4-12,8-18
		c5-7,11-11,18-14c6-2,13-5,19.587-4.374c1.855-0.829,2.964-1.673,3.913-2.501c0.5-1.875,1-3.625,1.5-5.125c6-12,17-19,30-21
		c14-2,28,4,37,15c5,7,9,15,10,24c1,12-2,24-10,34c-3,3-6,7-9.534,9.279c-0.388,2.82-0.634,5.505-0.851,8.225
		c0,4.977,0,9.996,0,14.967c0,1.326,0,2.648,0,3.965c-0.994,2.314-1.988,4.622-5.71,9.982
		c-10.641,14.328-10.641,35.328-1.641,50.328c-8-13-9-30-3.046-44.184c2.13-6.621,0.969-7.722-0.599-8.201
		c-24.65-3.596-51.119,10.514-54.619,37.639c-1,5,0,10,1,15c2,7,6,13,11,18c3,3,7,4,10,6c8,3,18,4,26,0
		c4.5-2.25,8.438-5.062,10.969-9.281c1.692,0.595,3.027,0.803,6.247,2.592c5.049,1.435,9.049,6.435,14.049,6.435
		c-7-2-13-6-18.765-10.337c-1.81-0.564-2.825-0.378-3.925-0.272c-1.176,1.387-2.277,2.91-3.98,3.957
		C162.074,210.087,160.382,211.102,160.382,211.102z"/>
</g>
<g>
	<g>
		<g>
			<g>
				<path d="M19.868,227.818c-0.424,0.542-0.826,1.054-0.826,1.054c0.089,0.069,0.187,0.125,0.283,0.19
					C19.532,228.615,19.709,228.207,19.868,227.818z"/>
				<path d="M17.403,224.254l-0.261,0.334c0.104,0.019,0.18,0.069,0.271,0.106C17.404,224.551,17.394,224.409,17.403,224.254z"/>
				<path d="M19.334,229.069c1.064,0.689,2.405,1.021,2.989,2.325c-0.454,0.579-1.36,1.737-1.817,2.32
					c0.095,0.997,1.096,0.835,1.646,1.255c-0.453,0.578-0.905,1.156-0.631,1.364c0.424,0.933,1.393,0.659,2.438-0.324
					C22.822,231.19,26.746,223.942,19.334,229.069z"/>
				<path d="M20.796,222.717l-2.41,3.079c0.376,0.804,0.663,1.72,1.533,1.893C20.702,225.744,20.937,224.364,20.796,222.717z"/>
				<path d="M262.302,59.404c-0.019-0.211,0.036-0.328,0.731-0.091C262.776,59.345,262.542,59.374,262.302,59.404
					c0.01,0.197,0.081,0.479-0.238,0.639c2.515-0.696,5.496-1.258,8.404-1.633c0.351-0.398,0.689-0.798,0.995-1.196
					c-3.611,0.425-7.236,0.724-10.649,1.385c-1.709,0.312-3.37,0.67-4.957,1.103c-1.586,0.442-3.089,1.01-4.495,1.652
					C255.497,60.775,258.298,59.913,262.302,59.404z"/>
				<path d="M271.87,55.093c0.252-0.026,0.49-0.051,0.74-0.077C271.92,54.763,271.859,54.88,271.87,55.093z"/>
				<path d="M152.852,98.296c-1.773,1.223-3.18,2.743-4.517,4.227c-0.663,0.75-1.296,1.511-1.913,2.275l-0.915,1.148l-0.91,1.242
					c5.958-5.55,12.537-10.408,17.368-14.508c-1.517,0.929-3.097,1.764-4.583,2.749C155.875,96.381,154.366,97.337,152.852,98.296z"
					/>
				<path d="M131.971,122.574c4.697-2.779,7.697-6.158,10.386-9.691c-3.267,2.868-6.513,5.717-9.743,8.552
					C132.4,121.812,132.162,122.194,131.971,122.574z"/>
				<path d="M135.417,117.229c3.959-3.006,6.585-6.504,9.18-10.042C141.191,110.49,137.98,113.862,135.417,117.229z"/>
				<path d="M212.94,45.047c3.238-1.863,5.284-2.665,6.463-3.059c0.433-0.585,1.016-1.317,1.828-2.249
					c-0.205,0.044-0.424,0.091-0.627,0.135c-1.753,0.68-3.517,1.364-5.292,2.052c-1.767,0.713-3.546,1.43-5.334,2.151
					c-1.406,0.799-2.727,1.605-3.783,2.465C208.454,46.064,210.718,45.589,212.94,45.047z"/>
				<path d="M219.403,41.988C215.732,46.995,224.013,40.55,219.403,41.988L219.403,41.988z"/>
				<path d="M203.099,68.495c-0.16,0.052-0.323,0.105-0.485,0.158c-0.444,0.224-0.9,0.454-1.343,0.677
					C201.894,69.045,202.486,68.775,203.099,68.495z"/>
				<path d="M160.445,75.14c2.678-1.474,5.265-3.17,7.897-4.662c-5.489,2.94-10.908,6.156-14.877,9.632
					c0.67-0.376,1.516-0.454,2.186-0.83C156.656,77.922,158.344,76.156,160.445,75.14z"/>
				<path d="M224.856,59.68c-7.819,2.473-15.249,5.65-22.242,8.972c-14.808,4.676-28.528,11.223-38.793,19.978
					c-4.399,4.028-11.016,8.348-16.877,13.633c-0.738,0.647-1.476,1.295-2.211,1.94c-0.729,0.659-1.446,1.408-2.152,2.111
					c-1.41,1.429-2.767,2.868-4.029,4.309c-2.526,2.883-4.676,5.775-6.133,8.624c1.086-0.644,2.079-1.32,2.997-2.019
					c-1.066,1.407-2.009,2.809-2.804,4.206c-1.836,1.528-3.542,3.235-5.294,4.865c-1.749,1.635-3.494,3.267-5.239,4.899
					l-5.261,4.847c-0.874,0.811-1.772,1.591-2.631,2.422l-2.562,2.519c-3.423,3.353-6.879,6.682-10.386,9.999l-2.64,2.485
					c-0.875,0.838-1.716,1.72-2.581,2.578c-1.728,1.718-3.464,3.443-5.208,5.176c-2.081,2.048-2.908,4.316-4.982,6.356
					c-1.029,1.055-2.06,2.091-3.059,3.148c-0.976,1.083-1.948,2.16-2.917,3.235c0.048,0.062,0.128,0.088,0.237,0.083
					c-3.97,4.51-7.86,9.022-11.718,13.624c-3.724,4.736-7.399,9.579-11.092,14.591c-0.901,1.145-1.834,2.261-2.788,3.36
					c-0.925,1.126-1.861,2.242-2.81,3.347c-1.896,2.212-3.826,4.396-5.688,6.632c-1.398,1.679-2.462,0.802-3.665,1.706
					c-5.12,3.352-8.846,6.01-13.469,10.775c0,0-0.544-0.426-0.815-0.638c-0.533,0.871-1.102,1.581-1.649,2.099
					c-1.113-4.853,2.83-12.126-4.581-6.999c0,0-0.005-0.004-0.009-0.007c0.208-0.445,0.384-0.853,0.545-1.248
					c0.032-0.041,0.059-0.076,0.089-0.114c-0.014-0.006-0.024-0.011-0.035-0.016c0.792-1.954,1.027-3.336,0.896-4.997
					c-0.804,1.027-1.609,2.056-2.417,3.087c-0.227-0.493-0.509-0.92-0.971-1.113c-0.002-0.146-0.011-0.287-0.003-0.442
					c0.359-0.458,0.66-0.843,0.66-0.843c-0.091-0.315-0.213-0.59-0.363-0.83c0.948-3.624,3.7-8.379,1.956-8.448
					c-1.096,0.147-2.136,2.551-3.559,5.073c-0.208,0.055-0.424,0.137-0.623,0.238c2.049-3.175-1.889-1.502-0.765-3.495
					c0.936-1.182,1.777-2.441,2.668-3.66c0.897-1.214,1.794-2.428,2.76-3.588c3.931-4.722,7.487-9.127,10.931-13.599
					c3.551-4.381,7.034-8.79,10.657-13.666c0.324-0.427,0.645-0.849,0.967-1.273c0.893-1.169,1.79-2.309,2.695-3.424
					c0.904-1.116,1.878-2.155,2.832-3.205c1.924-2.087,3.901-4.104,5.975-6.098c-0.08,0.429-0.183,0.86-0.299,1.29
					c3.351-3.19,6.54-6.534,9.411-10.203c3.554-4.467,7.121-8.946,10.858-13.41c0.942-1.11,1.887-2.224,2.837-3.344
					c0.952-1.119,1.994-2.16,3.009-3.24c2.05-2.141,4.162-4.273,6.354-6.39c2.311-2.202,4.583-4.406,6.829-6.623
					c2.251-2.212,4.621-4.288,6.901-6.473c2.299-2.165,4.587-4.357,6.88-6.588c2.292-2.232,4.564-4.529,7.017-6.697l-2.822,2.879
					c-0.909,0.994-1.825,1.98-2.754,2.956c-1.858,1.951-3.767,3.859-5.776,5.701c-1.896,1.545-3.772,3.098-5.537,4.673
					c1.951-1.493,3.777-3.058,5.537-4.673c1.821-1.488,3.655-2.986,5.469-4.468c0.899-0.75,1.787-1.504,2.654-2.265
					c0.43-0.385,0.858-0.767,1.284-1.147c0.434-0.371,0.866-0.74,1.294-1.107c3.403-2.963,6.333-6.094,8.258-9.602
					c0.801-0.252,1.008,0.023,1.616-0.442c2.146-1.632,4.304-3.204,6.353-4.836c2.158-1.6,4.135-3.281,5.728-5.218
					c-0.197-0.294,1.801-1.641,0.757-1.771c1.949-1.422,4.121-2.878,6.275-4.37c0.538-0.374,1.076-0.748,1.612-1.12
					c0.543-0.358,1.084-0.714,1.62-1.067c1.065-0.716,2.097-1.444,3.066-2.185c1.713-1.227,3.217-2.833,4.734-4.471l5.513-3.556
					c1.861-1.14,3.752-2.223,5.641-3.339l2.846-1.665l2.898-1.56c1.948-1.034,3.902-2.071,5.865-3.113
					c7.946-3.919,16.222-7.658,25.048-10.924c2.198-0.816,4.614-1.433,7.036-2.101c1.215-0.314,2.432-0.629,3.629-0.939
					c1.203-0.264,2.387-0.523,3.531-0.774c-6.492,2.571-13.135,5.29-19.814,8.121c-3.392,0.85-6.675,1.905-9.709,3.059
					c-3.019,1.228-5.755,2.729-8.04,4.484c-1.098,0.725-2.166,1.518-3.252,2.264c0.867-0.447,1.729-0.918,2.602-1.347l2.626-1.259
					c1.753-0.843,3.502-1.685,5.246-2.524c1.763-0.789,3.52-1.576,5.27-2.36c1.758-0.764,3.497-1.616,5.258-2.317
					c4.013-0.977,8.128-1.948,12.138-2.87c-0.075,0.044-0.144,0.084-0.223,0.13c-1.513,0.614-3.037,1.181-4.555,1.821
					c-1.515,0.637-3.037,1.277-4.563,1.919c-1.499,0.377-2.989,0.717-4.432,1.163c-1.443,0.446-2.855,0.913-4.218,1.414
					c-1.364,0.501-2.68,1.036-3.933,1.616c-1.243,0.623-2.42,1.296-3.517,2.021c-0.547,0.363-1.083,0.737-1.582,1.127
					c-1.081,0.743-2.173,1.457-3.259,2.169c4.295-2.043,8.571-4.193,12.898-6.039c1.339-0.597,2.678-1.194,4.014-1.789
					c1.34-0.585,2.689-1.116,4.029-1.683c1.764-0.422,3.552-0.849,5.335-1.276c-0.164,0.135-0.34,0.273-0.484,0.412
					c-1.479,0.772-4.624,5.871-2.069,6.225c1.442-0.436,2.956-0.893,4.503-1.361c1.548-0.453,3.129-0.915,4.701-1.374
					c1.572-0.461,3.127-0.975,4.645-1.396c1.518-0.429,2.987-0.844,4.365-1.234c1.38-0.394,2.669-0.763,3.826-1.094
					c1.163-0.295,2.195-0.557,3.052-0.774c1.719-0.427,2.749-0.656,2.764-0.571c0.252,0.304-0.804,0.878-2.507,1.569
					c-0.852,0.346-1.866,0.721-2.96,1.107c-1.092,0.404-2.262,0.836-3.432,1.268c-2.339,0.859-4.685,1.63-6.375,2.3
					c-1.692,0.665-2.748,1.111-2.541,1.148c1.148-0.125,2.291-0.273,3.424-0.438c-0.99,0.534-1.953,1.068-2.822,1.62
					c-2.157,0.906-5.25,1.262-6.555,2.374c-2.323,1.74-4.997,2.824-7.77,3.92c-2.752,1.162-5.632,2.23-8.305,3.858
					c-3.26,2.296-7.102,5.051-10.739,8.097c0.258,0.638-1.965,1.166-1.003,1.522c-0.977,0.403-2.005,0.794-2.982,1.259
					c-0.973,0.475-1.917,0.972-2.765,1.494c-1.697,1.045-3.009,2.191-3.395,3.47l-0.254,0.174c-0.271,0.116-0.598,0.406-0.928,0.752
					c-3.17,1.431-5.676,3.041-7.888,4.954c-2.192,1.95-4.248,3.932-6.551,6.12c-1.719,1.28-3.495,2.523-5.388,3.701
					c1.238-0.77,3.268-1.629,4.324-2.694c0.359-0.34,0.714-0.676,1.064-1.007c4.523-3.205,8.716-6.572,13.174-9.581
					c0.298-0.379,0.78-0.989,1.265-1.493c0.352-0.159,0.703-0.316,1.076-0.44c0.023-0.166,0.059-0.328,0.105-0.486
					c2.122-1.503,4.48-2.94,6.759-4.344c2.32-1.313,4.565-2.587,6.425-3.89c1.809-1.089,3.77-1.904,5.738-2.757
					c1.978-0.828,3.994-1.616,6.072-2.235c2.067-0.65,4.152-1.261,6.229-1.859c2.096-0.527,4.184-1.053,6.247-1.572
					c-1.949,0.865-3.884,1.724-5.805,2.576c-1.891,0.923-3.751,1.865-5.585,2.798c2.34-1.036,4.593-2.143,6.849-3.08
					c2.256-0.968,4.462-1.914,6.635-2.846c0.707-0.173,1.399-0.342,2.097-0.512l4.379-1.085c-1.399,0.189-2.779,0.412-4.149,0.647
					c2.631-1.039,5.216-2.179,7.8-3.19c14.426-4.863,29.967-8.093,45.33-8.866c-0.262,0.444-0.569,0.889-0.912,1.334
					c-3.67,0.429-7.335,0.914-10.808,1.542c-3.462,0.726-6.735,1.576-9.576,2.938c4.2-0.6,7.033-1.578,11.099-2.142
					c0.019,0.197,0.091,0.476-0.234,0.638c2.559-0.663,5.567-1.375,8.522-1.779c-0.866,0.969-1.838,1.978-2.803,2.967
					c-1.42,0.846-3.645,1.084-5.834,1.665c-9.531,1.756-18.567,3.009-27.713,5.698c-8.304,1.547-16.51,3.532-24.437,5.903
					c1.91-0.799,3.782-1.583,5.622-2.353c0.923-0.39,1.838-0.777,2.746-1.161c0.917-0.361,1.827-0.72,2.73-1.076
					c1.81-0.733,3.594-1.455,5.36-2.17C221.34,61.043,223.104,60.359,224.856,59.68z M32.775,211.07
					c0.376-0.675,0.749-1.386,1.109-2.106c-0.137,0.045-0.273,0.085-0.411,0.117C33.013,209.633,32.807,210.385,32.775,211.07z
					 M44.122,197.959c-3.707,3.526-7.392,9.19-11.112,14.496c0.05,0.088,0.106,0.163,0.168,0.213
					C36.892,208.704,40.509,203.042,44.122,197.959z M62.886,187.556l-0.164,0.015l0.124,0.098
					C62.859,187.632,62.872,187.595,62.886,187.556z M120.112,117.555c-1.729,2.576-4.005,5.05-6.503,7.542
					c-1.249,1.246-2.553,2.495-3.871,3.763c-0.656,0.637-1.327,1.265-1.975,1.924l-1.895,2.043
					c-1.642,1.499-2.356,4.018-4.538,6.009c-2.498,2.744-3.662,4.741-5.606,6.98l2.105-0.987c-2.012,1.622-3.243,3.268-4.429,4.957
					c-1.176,1.702-2.377,3.368-4.451,4.925c0.241,0.248,0.199,1.258-0.324,1.774c-2.374,2.82-5.482,4.911-7.087,7.458
					c-2.41,2.775-4.887,5.492-6.421,8.094c-0.507,0.535-0.765,2.314-1.524,3.618c-1.128,1.393-2.295,2.752-3.454,4.114
					c0.123,0.005,0.241,0.015,0.352,0.029c1.01-1.046,2-2.142,2.846-3.372c1.262-1.834,2.65-3.803,4.072-5.743
					c0.72-0.963,1.439-1.926,2.145-2.87c0.722-0.929,1.477-1.79,2.194-2.627c3.676-4.099,7.103-8.198,10.415-12.307
					c0.825-1.031,1.647-2.057,2.466-3.08c0.846-0.994,1.689-1.985,2.531-2.973c1.677-1.993,3.346-3.977,5.015-5.961
					c1.398-1.74,2.571-3.746,3.975-5.492c1.005-1.366,2.116-2.761,3.327-4.055c1.229-1.276,2.466-2.558,3.655-3.792
					c2.363-2.49,4.432-4.903,5.363-7.26C118.843,119.52,119.978,118.567,120.112,117.555z M117.282,100.612
					c-0.687,0.757-1.391,1.512-2.111,2.262c-0.701,0.769-1.408,1.545-2.118,2.324c-1.429,1.545-2.905,3.06-4.403,4.523
					c-2.996,2.926-6.084,5.643-9.078,7.971c-0.577,0.497-1.296,1.104-2.033,1.861c-0.736,0.759-1.536,1.62-2.353,2.54
					c-1.634,1.841-3.338,3.92-4.739,5.898c-2.805,3.96-4.387,7.505-1.862,8.002c0.094-2.629,2.448-6.062,5.784-9.768
					c1.676-1.844,3.561-3.793,5.593-5.674c2.072-1.837,4.228-3.673,6.307-5.447c4.158-3.548,8.001-6.846,10.248-9.435
					C118.842,103.174,119.565,101.361,117.282,100.612z M169.759,60.503c-1.43,0.942-2.833,1.86-4.312,2.739
					c-1.481,0.875-3.04,1.705-4.739,2.593c1.469-0.966,2.977-1.846,4.494-2.71L169.759,60.503z M146.916,88.483
					c1.772-1.794,3.636-3.582,5.642-5.2c2.024-1.588,4.122-3.124,6.245-4.636c2.156-1.447,4.367-2.81,6.542-4.211
					c1.082-0.714,2.182-1.377,3.283-2.023c1.096-0.657,2.182-1.32,3.253-1.993c0.826-0.515,1.681-0.997,2.556-1.455
					c0.88-0.445,1.795-0.825,2.71-1.214c1.835-0.767,3.705-1.477,5.536-2.218c1.844-0.706,3.669-1.383,5.379-2.215
					c1.716-0.815,3.314-1.802,4.787-2.878l-0.327-0.982l-0.626,0.563c-2.647,0.67-4.888,0.939-7.151,1.436
					c0.113-0.072,0.233-0.15,0.346-0.222c-0.21,0.095-0.419,0.191-0.632,0.288c-0.752,0.177-1.506,0.389-2.275,0.667
					c-0.766,0.29-1.537,0.675-2.34,1.141c-0.72,0.462-1.453,0.933-2.189,1.405c-8.785,4.225-17.704,9.078-24.191,15.373
					c-1.043,0.896-2.044,1.757-2.959,2.708c-0.915,0.95-1.793,1.903-2.665,2.853c-1.744,1.9-3.485,3.756-5.348,5.732
					c0.621-0.429,1.448-0.896,2.251-1.398C145.556,89.519,146.369,89.034,146.916,88.483z"/>
				<path d="M211.171,62.06c3.053-1.169,6.131-2.413,9.294-3.463c2.408-0.952,4.801-1.942,7.2-2.954
					c11.61-4.219,25.89-5.555,38.846-7.494c0.297-1.043,0.256-2.077-0.311-3.102c-7.195,0.034-14.333,1.083-21.422,2.3
					l-10.609,2.044c-3.526,0.756-7.077,1.327-10.628,1.994l-0.308,0.179c-5.605,3.2-15.449,5.03-22.324,8.839
					c-6.694,4.262-13.678,7.295-19.991,11.796C190.98,68.128,200.636,64.204,211.171,62.06z"/>
				<path d="M142.356,112.883c1.067-0.948,2.136-1.898,3.21-2.851l1.612-1.437c0.534-0.458,1.062-0.869,1.595-1.31
					c1.451-1.248,2.853-2.483,4.223-3.713c1.375-1.223,2.799-2.325,4.156-3.497c2.696-2.376,5.487-4.505,8.266-6.795
					c-2.208,1.368-4.475,2.647-6.676,4.039c-2.19,1.403-4.388,2.81-6.594,4.223c-2.052,1.645-3.741,3.452-5.283,5.3
					C145.314,108.772,143.884,110.889,142.356,112.883z"/>
				<path d="M170.047,89.703c-1.565,1.231-3.158,2.318-4.63,3.577c6.669-3.847,13.407-7.58,20.438-10.805
					c11.26-6.033,23.244-11,35.541-15.66c1.407-0.493,2.814-0.951,4.218-1.384c-11.923,2.337-23.698,5.44-34.485,9.785
					c-10.781,4.325-20.551,9.91-28.271,16.672c-0.282,0.249-0.596,0.527-0.894,0.791c8.197-4.847,16.543-9.393,25.241-13.305
					l-4.429,2.398c-0.734,0.404-1.473,0.794-2.198,1.21l-2.146,1.301l-4.261,2.617C172.759,87.776,171.414,88.767,170.047,89.703z"
					/>
				<path d="M208.243,63.288c0.704-0.185,1.399-0.368,2.095-0.552c0.785-0.32,1.556-0.635,2.327-0.949
					c-0.5,0.091-1,0.183-1.495,0.273C210.18,62.437,209.209,62.877,208.243,63.288z"/>
				<path d="M184.746,61.458c-0.094,0.022-0.189,0.044-0.287,0.066c-2.262,0.985-4.517,2.121-6.804,3.213
					c-1.492,0.961-3.05,1.842-4.591,2.838c-1.545,0.985-3.121,1.956-4.723,2.904c2.979-1.555,5.923-3.169,8.75-4.586
					C179.9,64.428,182.49,62.89,184.746,61.458z"/>
				<path d="M161.198,62.403c-0.728,0.367-2.18,1.097-2.912,1.466c-0.349,0.41-0.693,0.814-1.042,1.224
					c0.689-0.323,1.385-0.649,2.079-0.974L161.198,62.403z"/>
				<path d="M124.106,92.144c2.529-2.333,4.916-4.665,7.463-6.934c1.325-1.127,2.641-2.247,3.95-3.361
					c1.319-1.106,2.602-2.262,3.965-3.279c5.347-4.242,10.779-8.226,16.384-11.905l1.377-1.574
					c-4.087,1.855-7.948,4.192-11.619,6.609c-1.821,1.237-3.528,2.626-5.186,4.002c-1.651,1.39-3.235,2.803-4.639,4.396
					c-1.143,1.207-2.546,3.434-3.863,4.346c-1.571,1.14-2.836,2.359-4.182,3.571c-1.321,1.217-2.607,2.45-3.87,3.692
					c-2.525,2.484-4.954,5.001-7.385,7.489c2.439-2.235,4.896-4.508,7.395-6.86L124.106,92.144z"/>
			</g>
		</g>
	</g>
</g>
<g>
	<g>
		<g>
			<g>
				<g>
					<path d="M204.585,217.053c-0.056,0.371-0.109,0.722-0.109,0.722c0.029,0.004,0.058,0.001,0.088,0.001
						C204.572,217.514,204.579,217.277,204.585,217.053z"/>
					<path d="M203.64,216.177l-0.035,0.229c0.028-0.022,0.051-0.023,0.078-0.033C203.669,216.309,203.655,216.246,203.64,216.177z"
						/>
					<path d="M204.567,217.777c0.33-0.007,0.696-0.256,0.963,0.156c-0.06,0.395-0.18,1.185-0.24,1.583
						c0.116,0.419,0.352,0.047,0.528,0.072c-0.06,0.394-0.12,0.787-0.032,0.799c0.195,0.293,0.409-0.122,0.58-0.871
						C205.635,217.702,205.947,213.258,204.567,217.777z"/>
					<path d="M204.366,214.472c-0.144,0.698-0.223,1.406-0.338,2.109c0.168,0.252,0.325,0.579,0.558,0.398
						C204.611,215.87,204.515,215.172,204.366,214.472z"/>
					<path d="M244.187,227.839c0.047-0.027,0.092-0.01,0.224,0.35C244.333,228.066,244.261,227.954,244.187,227.839
						c-0.046,0.022-0.097,0.08-0.225-0.063c0.86,1.179,1.844,2.564,2.744,3.942c0.193,0.13,0.383,0.252,0.563,0.359
						c-1.105-1.706-2.198-3.419-3.288-5.03c-1.003-1.663-2.003-3.224-3.023-4.574C242.123,224.532,242.992,225.909,244.187,227.839z
						"/>
					<path d="M247.884,232.049c0.076,0.118,0.147,0.229,0.223,0.347C247.976,232.038,247.932,232.022,247.884,232.049z"/>
					<path d="M227.091,163.65c0.007-2.482-0.223-4.659-0.509-6.815c0.21,4.58,0.078,9.404,0.351,13.037
						C226.956,167.791,227.017,165.72,227.091,163.65z"/>
					<path d="M224.873,146.5c0.233,2.8,0.521,5.18,0.886,7.492c-0.134-2.357-0.31-4.671-0.678-6.88
						C225.012,146.91,224.94,146.7,224.873,146.5z"/>
					<path d="M225.753,149.596c0.208,2.639,0.529,4.93,0.829,7.238C226.458,154.246,226.227,151.743,225.753,149.596z"/>
					<path d="M239.035,203.097c0.826,1.601,1.281,2.577,1.508,3.145c0.208,0.211,0.451,0.502,0.824,0.877
						c-0.039-0.095-0.082-0.196-0.121-0.291c-0.757-1.662-1.488-3.37-2.236-5.103c-0.376-0.686-0.679-1.359-0.984-1.911
						C238.283,200.934,238.668,202.02,239.035,203.097z"/>
					<path d="M240.543,206.242C238.792,204.422,241.428,208.466,240.543,206.242L240.543,206.242z"/>
					<path d="M231.72,196.664l-0.078-0.275c-0.101-0.258-0.171-0.532-0.251-0.794C231.484,195.964,231.593,196.309,231.72,196.664z"
						/>
					<path d="M231.062,173.777c0.012,0.803,0.061,1.6,0.119,2.393c0.046,0.795,0.12,1.581,0.223,2.354
						c-0.301-3.2-0.363-6.489-0.564-9.235c-0.012,0.408-0.104,0.816-0.112,1.225C230.888,171.335,231.049,172.557,231.062,173.777z"
						/>
					<path d="M236.382,208.714c-0.855-2.074-1.704-4.133-2.543-6.17c-0.741-2.077-1.474-4.131-2.196-6.156
						c-0.487-2.123-0.97-4.227-1.446-6.305c-0.429-2.087-0.754-4.165-1.159-6.196c-0.78-4.086-1.142-8.142-1.464-11.929
						c-0.338-3.346-0.25-7.918-0.355-12.402c-0.083-4.488-0.517-8.897-1.587-11.87c0.043,0.666,0.083,1.3,0.122,1.911
						c-0.175-0.904-0.411-1.731-0.673-2.483c-0.273-1.93-0.731-3.76-1.226-5.542c2.804,0.096,5.584,0.191,8.364,0.286
						c-2.764,8.453-5.953,16.619-9.316,24.921c-0.616,1.526-0.831,2.769-1.447,4.294c-0.598,1.547-1.187,3.069-1.773,4.584
						c0.016,0.013,0.042,0.001,0.077-0.033c-2.365,6.303-4.519,12.524-6.343,19.13c-0.891,3.083-1.902,6.122-2.702,9.199
						c-0.308,1.153-0.662,1.064-0.943,1.816c-0.576,1.494-1.088,2.807-1.58,4.18c-0.473,1.376-0.862,2.82-1.3,4.565
						c0,0-0.175-0.032-0.262-0.047c-0.08,0.547-0.172,1.032-0.253,1.428c-0.706-1.85-0.168-6.291-1.754-1.8l-0.003-0.001
						c0.019-0.261,0.035-0.497,0.051-0.724c0.005-0.028,0.01-0.052,0.015-0.077l-0.011,0.003c0.064-1.115,0.024-1.809-0.133-2.522
						l-0.409,2.108c-0.096-0.156-0.202-0.266-0.338-0.217c-0.011-0.066-0.022-0.129-0.033-0.199
						c0.061-0.313,0.112-0.576,0.112-0.576c-0.047-0.116-0.1-0.204-0.157-0.269c-0.056-1.929,0.467-4.871-0.029-4.397
						c-0.269,0.391-0.479,1.767-0.642,3.339c-0.051,0.086-0.102,0.187-0.147,0.292c0.307-2.048-0.609-0.125-0.458-1.364
						c0.356-1.621,0.661-3.253,1.034-4.872c1.647-6.557,3.283-12.008,5.221-18.352c0.088-0.28,0.174-0.556,0.261-0.834
						c0.473-1.539,0.993-3.01,1.527-4.468c0.528-1.461,1.085-2.9,1.692-4.348c-0.021,0.213-0.043,0.427-0.065,0.644
						c0.959-2.338,1.904-4.681,2.718-7.076c1.968-5.882,3.997-11.732,6.323-17.873c1.648-4.259,3.097-8.455,4.485-12.764
						l2.599-8.068l2.343,8.237c0.663,2.33,1.266,4.743,1.603,7.201c-0.393-2.39-1.034-4.767-1.726-7.167l-2.217-7.696l-2.481,7.535
						c-0.174,0.53-0.353,1.07-0.531,1.614c-0.446,1.231-0.89,2.456-1.321,3.647c0.488-1.221,0.909-2.438,1.321-3.647l0.59-1.593
						l2.663-7.189l1.917,7.346c1.219,4.671,1.589,9.337,2.433,12.903c-0.058,0.442-0.14,0.445-0.138,0.867
						c0.063,2.98-0.113,5.9,0.17,8.405c0.089,0.003,0.046,1.247,0.238,0.839c0.005,2.493-0.11,5.358,0.028,7.777
						c0.034,1.051,0.196,2.091,0.415,3.116c0.118,2.134,0.335,4.203,0.622,6.239c0.294,1.991,0.787,4.116,1.226,6.221
						c0.39,2.124,1.011,4.202,1.583,6.319c0.516,2.132,1.295,4.224,2,6.375c0.167,0.538,0.339,1.095,0.515,1.662
						c0.2,0.56,0.404,1.131,0.608,1.703c0.4,1.146,0.802,2.294,1.177,3.368c-0.678-1.546-1.363-3.109-2.055-4.688
						c-0.598-1.619-1.17-3.274-1.757-4.943c-0.108-0.414-0.216-0.825-0.323-1.233c-0.086-0.414-0.171-0.825-0.255-1.231
						c-0.173-0.813-0.353-1.607-0.545-2.377c-0.192-0.77-0.395-1.514-0.615-2.227c-0.221-0.712-0.381-1.413-0.607-2.063
						c-0.176-0.616-0.351-1.226-0.526-1.837c0.395,1.881,0.742,3.762,1.292,5.574c0.251,0.91,0.502,1.818,0.752,2.722
						c0.24,0.905,0.499,1.801,0.826,2.672c0.252,0.979,0.507,1.969,0.763,2.961c0.264,0.99,0.488,1.994,0.846,2.945
						c-0.02-0.037-0.038-0.071-0.058-0.109c-0.641-1.468-1.101-3.011-1.66-4.542c-0.197-0.738-0.392-1.469-0.584-2.188
						c-0.165-0.726-0.328-1.44-0.487-2.138c-0.333-1.393-0.699-2.71-1.125-3.915c-0.114-0.298-0.2-0.602-0.296-0.89
						c-0.176-0.615-0.351-1.23-0.526-1.841c0.421,2.344,1.109,4.605,1.717,6.853c0.2,0.695,0.367,1.397,0.593,2.081
						c0.236,0.681,0.472,1.36,0.707,2.038c0.224,0.87,0.45,1.751,0.677,2.63c-0.047-0.085-0.097-0.174-0.142-0.255
						c-0.296-0.733-1.905-2.607-1.839-1.383c0.755,2.999,2.157,6.446,3.191,9.187c0.604,1.338,1.129,2.5,1.502,3.327
						c0.183,0.415,0.33,0.746,0.43,0.973c0.098,0.228,0.146,0.354,0.136,0.359c-0.087,0.255-1.246-2.014-2.384-4.311
						c-1.006-2.345-1.965-4.724-1.945-4.519c0.163,0.576,0.326,1.151,0.487,1.723c-0.253-0.511-0.505-1.012-0.752-1.468
						c-0.237-0.56-0.48-1.226-0.69-1.849c-0.188-0.63-0.372-1.209-0.567-1.575c-0.638-1.29-1.135-2.736-1.625-4.237
						c-0.424-1.519-0.792-3.104-1.316-4.66c-0.756-1.93-1.398-4.309-2.148-6.694c-0.175,0.025-0.277-1.211-0.39-0.779
						c-0.204-1.147-0.295-2.4-0.49-3.477c-0.145-1.082-0.328-1.996-0.622-2.485l-0.025-0.169c-0.008-0.165-0.043-0.398-0.091-0.648
						c-0.043-3.896-0.457-6.616-0.69-10.151c-0.003-1.208,0.012-2.442,0.054-3.699c-0.028,0.821-0.16,2.055-0.101,2.885
						c0.016,0.274,0.031,0.546,0.047,0.814c0.013,3.141,0.189,6.154,0.463,9.15c0.06,0.244,0.156,0.635,0.227,1.001
						c0.001,0.217,0.002,0.433,0.003,0.652c0.04,0.05,0.078,0.106,0.114,0.165c0.355,2.86,0.932,6.045,1.579,8.395
						c0.254,1.117,0.465,2.258,0.691,3.407c0.275,1.14,0.533,2.293,0.781,3.451c0.262,1.155,0.453,2.33,0.752,3.474
						c0.303,1.143,0.605,2.282,0.904,3.407c-0.388-1.096-0.773-2.186-1.156-3.267c-0.393-1.081-0.661-2.185-1-3.264
						c0.676,2.744,1.631,5.242,2.466,7.677c0.106,0.384,0.21,0.761,0.315,1.14c0,0,0.035,0.151,0.115,0.369
						c0.076,0.219,0.177,0.511,0.278,0.803c0.202,0.584,0.404,1.169,0.404,1.169c-0.221-0.739-0.44-1.468-0.657-2.194
						c0.604,1.411,1.202,2.807,1.793,4.186c3.162,7.606,7.092,15.096,11.39,22.189c-0.178-0.08-0.369-0.181-0.57-0.301
						c-0.538-0.846-1.104-1.676-1.612-2.526c-0.501-0.855-0.995-1.7-1.48-2.527c-0.993-1.639-1.993-3.172-2.886-4.568
						c0.969,2.116,1.962,3.408,3.046,5.365c-0.045,0.023-0.099,0.078-0.218-0.069c0.387,0.607,0.805,1.262,1.235,1.937
						c0.425,0.679,0.916,1.345,1.353,2.03c-0.473-0.32-0.979-0.697-1.487-1.076c-0.59-0.612-1.167-1.712-1.855-2.751
						c-0.68-1.159-1.363-2.296-1.996-3.447c-0.588-1.176-1.171-2.341-1.753-3.505c-1.226-2.301-2.168-4.72-3.302-7.124
						c-0.471-1.085-0.826-2.213-1.206-3.33c-0.379-1.117-0.758-2.233-1.135-3.345c-0.723-2.235-1.278-4.51-1.932-6.733
						c0.755,2.181,1.427,4.283,2.193,6.284C234.745,204.928,235.547,206.847,236.382,208.714z M206.787,205.716
						c0.061-0.414,0.107-0.845,0.18-1.271l-0.11,0.171C206.753,204.996,206.755,205.398,206.787,205.716z M209.412,196.578
						c-0.974,2.627-1.78,6.225-2.473,9.696c0.019,0.025,0.039,0.043,0.059,0.047C207.768,203.458,208.519,199.874,209.412,196.578z
						 M214.69,186.591l-0.05,0.053l0.04,0.008L214.69,186.591z M227.217,142.848c-0.25-0.635-0.487-1.304-0.716-2.007
						c1.018,0.035,2.072,0.071,3.125,0.107c-0.753,2.763-1.84,5.848-2.884,8.942c-0.435,1.165-0.569,2.44-1.171,3.985
						c-0.671,1.962-0.971,3.175-1.505,4.744l0.627-1.087c-1.159,2.656-1.283,4.387-2.532,6.993c0.083,0.033,0.093,0.482-0.062,0.864
						c-0.69,1.942-1.624,3.783-2.076,5.375c-0.675,1.938-1.438,3.841-1.872,5.432c-0.148,0.383-0.195,1.24-0.407,2.035l-1,2.818
						c0.038-0.031,0.074-0.061,0.109-0.089c0.293-0.756,0.585-1.526,0.826-2.315c0.71-2.351,1.612-5.082,2.44-7.4
						c2.134-5.783,4.001-11.267,5.797-16.789c0.371-1.189,0.663-2.411,1.03-3.599c0.46-1.688,1.085-3.503,1.629-5.225
						c0.53-1.729,1-3.354,1.2-4.633c-1.176-0.04-2.352-0.08-3.423-0.117c0.081,0.184,0.158,0.339,0.237,0.485
						C226.766,141.73,226.95,142.498,227.217,142.848z M231.753,146.816c-0.408-2.265-1.052-4.639-1.716-6.951l-1.831-6.385
						l-2.042,6.253c-0.688,2.105-1.379,4.173-2.136,6.04c-1.118,3.076-4.135,12.052-2.54,10.921
						c-0.156-2.616,3.258-10.709,5.288-16.747l1.442-4.289l1.195,4.379C230.678,144.675,231,148.151,231.753,146.816z
						 M233.816,180.997c-0.165-0.79-0.309-1.575-0.398-2.401c-0.111-0.819-0.189-1.677-0.207-2.618
						c0.061,0.855,0.146,1.699,0.255,2.531C233.552,179.348,233.672,180.176,233.816,180.997z M230.037,163.916
						c0.425,5.372,0.3,11.136,1.128,16.317c0.309,2.02,0.628,4.107,0.942,6.156c0.169,1.028,0.307,2.05,0.55,3.018
						c0.26,0.964,0.551,1.889,0.896,2.746l0.26-0.056l-0.172-0.375c-0.228-1.403-0.401-2.531-0.475-3.727l0.055,0.201l-0.069-0.352
						c-0.076-0.793-0.189-1.607-0.403-2.534c-0.107-0.425-0.216-0.856-0.325-1.289c-0.997-4.922-1.129-10.065-1.584-14.731
						c-0.19-2.872-0.529-5.364-0.707-8.259C230.111,161.852,229.976,163.087,230.037,163.916z"/>
					<path d="M234.136,201.454c0.589,1.678,1.34,3.313,1.993,4.991l0.84,1.903l0.961,1.842c0.753,1.465,1.428,3.034,2.214,4.596
						c0.811,1.551,1.618,3.149,2.423,4.763c1.751,3.154,3.501,6.385,5.526,9.265c0.331,0.036,0.568-0.087,0.667-0.447
						c-3.791-6.544-7.706-13.073-10.273-20.214l-0.094-0.154c-0.8-1.426-1.563-3.417-2.372-5.5c-0.759-2.1-1.391-4.347-2.174-6.246
						c-0.768-1.905-1.316-3.878-1.93-5.842c-0.323-0.98-0.549-1.98-0.789-2.98c-0.253-0.996-0.506-1.994-0.761-3
						c0.237,1.467,0.47,2.916,0.702,4.355c0.26,1.433,0.63,2.834,0.935,4.245C232.567,195.865,233.441,198.606,234.136,201.454z"/>
					<path d="M225.758,153.993c0.081,1.545,0.119,3.123,0.149,4.722c0.11,4.467,0.159,8.543,0.428,12.76
						c-0.014-3.097,0.095-6.163,0.193-9.214C226.527,159.207,226.159,156.628,225.758,153.993z"/>
					<path d="M226.604,174.906c-0.096-1.157-0.204-2.303-0.268-3.431c0.007,2.293,0.071,4.6,0.261,6.919
						c0.163,2.314,0.513,4.663,0.933,6.872c0.4,1.831,0.693,3.673,1.177,5.484l1.446,5.419c1.151,3.558,2.299,7.104,3.813,10.508
						c0.314,0.784,0.625,1.561,0.933,2.331c-2.355-6.491-4.099-13.158-5.456-19.643c-0.53-3.271-1.228-6.421-1.617-9.62
						c-0.407-3.179-0.607-6.256-0.84-9.188c-0.017-0.217-0.036-0.456-0.053-0.684c-0.039,2.782,0.028,5.587,0.235,8.392l0.188,2.105
						l0.276,2.099c0.206,1.385,0.478,2.729,0.716,4.091c-0.388-1.902-0.81-3.786-1.093-5.767
						C226.962,178.829,226.769,176.864,226.604,174.906z"/>
					<path d="M233.571,199.826c0.104,0.385,0.207,0.765,0.31,1.146c0.153,0.434,0.304,0.861,0.454,1.287
						c-0.067-0.269-0.134-0.539-0.2-0.805C233.946,200.909,233.758,200.365,233.571,199.826z"/>
					<path d="M233.167,187.994l-0.014-0.151c-0.239-1.257-0.483-2.535-0.729-3.823c-0.219-0.883-0.447-1.791-0.595-2.698
						c-0.179-0.91-0.326-1.845-0.426-2.798C231.694,181.955,232.46,185.367,233.167,187.994z"/>
					<path d="M233.972,176.89c-0.012-0.39-0.035-1.168-0.047-1.561l-0.179-0.709c0.005,0.366,0.009,0.737,0.014,1.106
						L233.972,176.89z"/>
					<path d="M232.828,152.669c0.548,7.552,0.295,14.466,0.713,21.003c0.068,0.314,0.136,0.631,0.205,0.948
						c0.003-4.357,0.107-8.837-0.25-13.073c-0.066-0.838-0.298-2.101-0.279-2.937c-0.01-3.979-0.346-7.849-1.037-11.694
						c0.288,1.843,0.483,3.703,0.635,5.594L232.828,152.669z"/>
				</g>
			</g>
		</g>
	</g>
	<g>
		<g>
			<g>
				<g>
					<path d="M212.948,192.292c-0.036-0.001-0.071-0.002-0.071-0.002l0,0.088L212.948,192.292z"/>
					<polygon points="213.034,191.228 213.011,191.227 213.014,191.299 					"/>
					<path d="M212.877,192.381c0.002,0.325,0.027,0.651-0.011,0.975c-0.037-0.001-0.112-0.003-0.149-0.004
						c-0.038,0.177-0.001,0.355-0.002,0.533c-0.036-0.001-0.073-0.002-0.073,0.087c-0.026,0.233,0.017,0.388,0.084,0.445
						C212.879,193.425,213.317,193.08,212.877,192.381z"/>
					<path d="M213.205,191.676l-0.211-0.005c-0.025,0.203-0.057,0.406-0.038,0.611C213.064,192.134,213.133,191.964,213.205,191.676
						z"/>
					<path d="M231.11,191.403c-0.017-0.052-0.022-0.08,0.044-0.018L231.11,191.403c0.015,0.048,0.042,0.118,0.031,0.155
						c0.127-0.149,0.278-0.3,0.445-0.387l-0.035-0.289c-0.414,0.192-0.834,0.344-1.071,0.906
						C230.742,191.717,230.871,191.499,231.11,191.403z"/>
					<path d="M231.393,190.371l0.041-0.018C231.368,190.292,231.374,190.32,231.393,190.371z"/>
					<path d="M223.714,193.368c-0.281,0.063-0.544,0.36-0.813,0.643c0.549-0.227,1.096-0.322,1.51-0.653
						C224.175,193.38,223.948,193.376,223.714,193.368z"/>
					<path d="M221.572,195.084c0.338,0.193,0.648-0.006,0.944-0.286c-0.292,0.055-0.576,0.108-0.853,0.16
						C221.633,195,221.604,195.039,221.572,195.084z"/>
					<path d="M222.007,194.561c0.318,0.029,0.611-0.254,0.893-0.55C222.596,194.13,222.292,194.295,222.007,194.561z"/>
					<path d="M227.495,186.378c0.102-0.278,0.164-0.402,0.207-0.439c0.001-0.126,0.002-0.28,0.003-0.474l-0.023,0.004
						c-0.107,0.18-0.224,0.346-0.348,0.505c-0.043,0.122-0.084,0.252-0.118,0.401C227.316,186.393,227.404,186.388,227.495,186.378z
						"/>
					<path d="M227.702,185.939C227.7,187.015,227.87,185.798,227.702,185.939L227.702,185.939z"/>
					<polygon points="227.347,191.61 227.316,191.614 227.232,191.683 					"/>
					<path d="M224.885,189.2c0.16-0.034,0.319-0.097,0.474-0.181c-0.321,0.092-0.646,0.182-0.926,0.444
						c0.041,0,0.08,0.09,0.121,0.09C224.641,189.376,224.764,189.199,224.885,189.2z"/>
					<path d="M228.595,190.606c-0.421,0.306-0.847,0.657-1.279,1.008c-0.936,0.133-1.819,0.355-2.661,1.071
						c-0.758,0.71-2.021,0.451-2.874,1.803c0.077,0.044,0.152,0.067,0.226,0.073c-0.119,0.112-0.234,0.243-0.345,0.397
						c-1.242,0.196-2.442,0.25-3.588,0.111c-0.174-0.021-0.334,0.229-0.499,0.21l-0.506-0.009c-0.003,0.02-0.003,0.04-0.001,0.059
						c-0.696,0.034-1.374,0.13-2.044,0.368c-0.312,0.061-0.612-0.056-0.894-0.069c-0.108-0.006-0.086-0.361-0.154-0.454
						c-0.27-0.463-0.478-0.831-0.793-1.011c0,0,0.004-0.178,0.007-0.266c-0.051,0.029-0.096,0.025-0.133-0.004
						c0.171-0.993,0.623-1.338,0.184-2.037l0-0.003l0.073-0.086l0.008,0l0-0.01c0.113-0.147,0.186-0.318,0.264-0.606l-0.216-0.005
						c0.017-0.124,0.03-0.249,0.026-0.373l0.021-0.07c0.033,0.001,0.06,0.001,0.06,0.001l0.031-0.205
						c0.206-0.382,0.528-0.558,0.487-0.93c-0.037-0.191-0.191-0.041-0.362,0.072c-0.009-0.034-0.019-0.065-0.03-0.089
						c0.223-0.084,0.023-0.621,0.16-0.707c0.178,0.008,0.359-0.069,0.537-0.059c0.726,0.037,1.332,0.009,2.062-0.19l0.095-0.021
						c0.349-0.074,0.673-0.059,0.996,0.047c-0.03,0.058-0.058,0.112-0.085,0.164c0.257,0.087,0.518,0.138,0.798,0.034
						c0.688-0.278,1.371-0.55,2.054-0.563c0.715,0.012,1.404-0.105,2.123-0.339c-0.297,0.176-0.605,0.321-0.904,0.354
						c-0.131-0.022-0.263-0.04-0.392-0.034c0.13,0.042,0.261,0.048,0.392,0.034c0.506,0.09,1.023,0.241,1.464-0.564
						c0.036,0.077,0.029,0.165,0.069,0.168c0.283,0.025,0.556,0.127,0.807-0.219c0.004-0.089,0.121-0.083,0.09-0.262
						c0.233-0.082,0.512-0.058,0.735-0.239c0.098-0.057,0.196-0.227,0.293-0.435c0.797-0.456,1.482-0.989,2.119-1.508
						c0.168-0.095,0.338-0.145,0.504-0.168c-0.185,0.336-0.413,0.623-0.681,0.862c-0.283-0.037-0.536-0.006-0.753,0.451
						c-0.054,0.086-0.105,0.168-0.154,0.245c0.333-0.202,0.636-0.432,0.907-0.696c0.163,0.018,0.349,0.077,0.501,0.047l-0.007,0.02
						c-0.102,0.14-0.229,0.249-0.35,0.365c-0.263-0.037-0.492-0.006-0.695,0.321c-0.025,0.041-0.05,0.086-0.074,0.138
						c-0.055,0.086-0.107,0.168-0.157,0.245c0.207-0.127,0.409-0.259,0.59-0.415c0.109-0.094,0.22-0.189,0.335-0.288
						c0.076,0.012,0.155,0.024,0.232,0.036l-0.015,0.07c-0.051,0.093-0.13,1.149,0.005,1.404c0.562-0.084,1.215-0.634,1.224-0.551
						c0.128,0.353-0.736,0.956-0.695,1.044c0.059,0.03,0.118,0.054,0.177,0.074c-0.04,0.08-0.08,0.162-0.115,0.253
						c-0.099,0.108-0.26,0.044-0.317,0.224c-0.21,0.555-0.546,0.41-0.839,0.796c-0.181,0.277-0.419,0.642-0.657,1.007
						c0.007,0.177-0.126,0.094-0.077,0.27c-0.244,0.013-0.524,0.019-0.627,0.533l-0.018,0.014c-0.018,0-0.042,0.029-0.069,0.07
						c-0.412-0.097-0.709,0.404-1.104,0.727c-0.133,0.039-0.268,0.063-0.405,0.057c0.09,0.004,0.221,0.099,0.315,0.014l0.091-0.071
						c0.344-0.1,0.677-0.345,0.997-0.532c0.026-0.052,0.068-0.136,0.107-0.196c0.023,0.005,0.046,0.011,0.069,0.019
						c0.006-0.037,0.012-0.071,0.017-0.103c0.301-0.245,0.64-0.366,0.882-0.633c0.463-0.31,0.966-0.221,1.457-0.217
						c-0.222,0.171-0.446,0.355-0.67,0.549c0.286-0.181,0.549-0.361,0.794-0.551c0.042-0.002,0.083-0.002,0.123-0.009l0.254-0.042
						c-0.085-0.026-0.167-0.042-0.248-0.055c0.143-0.128,0.281-0.259,0.411-0.4c0.382-0.263,0.755-0.502,1.129-0.695
						c0.383-0.169,0.755-0.325,1.161-0.389l0.055,0.322c-0.364,0.179-0.733,0.309-0.949,0.836c0.234-0.06,0.356-0.238,0.565-0.335
						c0.015,0.049,0.038,0.118,0.029,0.156c0.111-0.144,0.243-0.289,0.391-0.368c0.025,0.234,0.04,0.469,0.052,0.706
						c-0.028,0.197-0.155,0.239-0.257,0.367c-0.517,0.304-1.062,0.403-1.59,0.712c-0.516,0.054-1.022,0.107-1.524,0.159
						C227.818,191.324,228.231,190.997,228.595,190.606z M214.078,192.256c0.043-0.034,0.088-0.075,0.134-0.12l-0.015-0.063
						C214.157,192.071,214.114,192.151,214.078,192.256z M215.016,192.406c-0.271-0.182-0.648,0.005-1.003,0.121
						c-0.002,0.024-0.005,0.048-0.007,0.068C214.293,192.697,214.659,192.493,215.016,192.406z M215.952,194.347l-0.004-0.03
						l-0.004,0.04L215.952,194.347z M221.471,192.118c-0.391,0.406-0.839,0.367-1.29,0.492c-0.13-0.015-0.301,0.323-0.476,0.304
						c-0.227,0.063-0.382,0.225-0.564,0.293l0.109,0.192c-0.292-0.123-0.526,0.385-0.806,0.172c-0.011,0.089-0.074,0.26-0.118,0.255
						c-0.227,0.062-0.42-0.14-0.607,0.017c-0.22,0.064-0.43,0.039-0.619,0.195c-0.042-0.005-0.156,0.25-0.25,0.329
						c-0.107,0.023-0.208,0.035-0.31,0.049l0.004,0.072c0.081,0.012,0.161,0.011,0.254-0.038c0.271-0.147,0.585-0.29,0.847-0.348
						c0.655-0.103,1.3-0.379,1.954-0.664c0.142-0.073,0.293-0.235,0.434-0.308c0.429-0.306,0.911-0.171,1.235-0.764
						C221.323,192.282,221.411,192.291,221.471,192.118z M222.294,188.327c-0.464,0.339-0.972,0.458-1.379,0.344
						c-0.335-0.038-1.366,0.382-1.324,1.459C220.234,188.263,222.407,190.393,222.294,188.327z M225.581,186.825
						c-0.142,0.15-0.296,0.268-0.471,0.268C225.269,187.001,225.433,186.923,225.581,186.825z M223.857,190.418
						c0.577-0.586,1.151-0.688,1.676-1.037c0.388-0.287,0.86,0.151,1.167-0.501l-0.02-0.266l-0.031,0.092
						c-0.136-0.035-0.258-0.18-0.374-0.248l0.018-0.024l-0.033,0.016c-0.078-0.043-0.156-0.052-0.243,0.021l-0.121,0.129
						c-0.475,0.19-0.99,0.302-1.462,0.863c-0.294,0.258-0.563,0.686-0.874,0.94C223.645,190.408,223.769,190.502,223.857,190.418z"
						/>
					<path d="M227.785,190.527c0.174-0.134,0.341-0.265,0.5-0.387c0.122-0.132,0.238-0.27,0.35-0.418
						c0.542-0.59,1.288-0.616,1.851-1.048c-0.069-0.252-0.158-0.503-0.272-0.755c-0.714-0.052-1.244,0.581-1.974,0.558l-0.011,0.031
						c-0.207,0.578-0.729,0.486-1.081,0.954c-0.347,0.578-0.754,0.779-1.162,1.235C226.606,190.684,227.165,190.427,227.785,190.527
						z"/>
					<path d="M222.516,194.798c0.186-0.041,0.374-0.083,0.567-0.126c0.544-0.19,1.009-0.419,1.499-0.742
						c-0.356,0.049-0.7,0.054-1.051,0.04C223.177,194.049,222.851,194.482,222.516,194.798z"/>
					<path d="M224.973,193.664c-0.136,0.093-0.265,0.18-0.39,0.266c0.523-0.064,1.036-0.161,1.558-0.308
						c0.838-0.389,1.673-0.78,2.428-1.38c0.086-0.063,0.173-0.117,0.259-0.165c-1.558,0.169-3.018,0.132-4.338,1.216l-0.078,0.064
						c0.628-0.054,1.245-0.174,1.863-0.351C225.845,193.217,225.409,193.431,224.973,193.664z"/>
					<path d="M227.62,190.649l0.124-0.002c0.044-0.034,0.087-0.067,0.129-0.107l-0.088-0.013L227.62,190.649z"/>
					<path d="M226.275,188.459l-0.015-0.009c-0.119,0.056-0.241,0.104-0.364,0.15c-0.168,0.165-0.345,0.32-0.536,0.419
						C225.704,188.916,226.035,188.789,226.275,188.459z"/>
					<path d="M225.195,186.36c-0.036,0-0.107-0.001-0.144-0.001l-0.066,0.16l0.102,0.018L225.195,186.36z"/>
					<path d="M222.902,187.708c0.732-0.294,1.397-0.619,1.995-0.987c0.028-0.064,0.058-0.132,0.088-0.201
						c-0.394-0.05-0.8,0.047-1.215,0.516c-0.08,0.085-0.211,0.346-0.288,0.342c-0.374,0.063-0.757,0.311-1.14,0.541
						c0.179-0.062,0.36-0.128,0.544-0.204C222.887,187.713,222.897,187.71,222.902,187.708z"/>
				</g>
			</g>
		</g>
	</g>
</g>
<g>
	<g>
		<g>
			<g>
				<g>
					<path d="M187.725,145.324c-0.051,0.328-0.1,0.639-0.1,0.639c0.026,0.004,0.052,0.001,0.079,0.002
						C187.712,145.732,187.718,145.522,187.725,145.324z"/>
					<path d="M186.878,144.54l-0.032,0.203c0.025-0.02,0.046-0.02,0.07-0.029C186.903,144.658,186.891,144.601,186.878,144.54z"/>
					<path d="M187.707,145.965c0.296-0.004,0.626-0.223,0.864,0.144c-0.055,0.35-0.164,1.049-0.219,1.401
						c0.103,0.372,0.316,0.044,0.474,0.067c-0.055,0.348-0.109,0.697-0.03,0.707c0.174,0.261,0.367-0.106,0.523-0.768
						C188.666,145.906,188.957,141.968,187.707,145.965z"/>
					<path d="M187.535,143.034c-0.133,0.618-0.204,1.245-0.31,1.868c0.15,0.224,0.29,0.516,0.5,0.357
						C187.751,144.275,187.665,143.655,187.535,143.034z"/>
					<path d="M223.954,154.906c0.042-0.025,0.082-0.011,0.203,0.307C224.086,155.105,224.021,155.006,223.954,154.906
						c-0.041,0.02-0.086,0.073-0.202-0.052c0.779,1.034,1.67,2.25,2.487,3.46c0.174,0.112,0.345,0.218,0.506,0.309
						c-1.002-1.499-1.994-3.005-2.982-4.419c-0.914-1.461-1.818-2.834-2.743-4.018C222.08,151.998,222.866,153.211,223.954,154.906z
						"/>
					<path d="M227.296,158.587c0.069,0.104,0.134,0.202,0.202,0.305C227.377,158.576,227.338,158.562,227.296,158.587z"/>
					<path d="M208.339,98.105c0.008-2.201-0.197-4.132-0.454-6.042c0.188,4.058,0.065,8.338,0.309,11.563
						C208.215,101.779,208.271,99.941,208.339,98.105z"/>
					<path d="M206.34,82.924c0.216,2.471,0.475,4.575,0.804,6.621c-0.121-2.086-0.281-4.133-0.617-6.081
						C206.466,83.286,206.402,83.101,206.34,82.924z"/>
					<path d="M207.137,85.656c0.19,2.333,0.479,4.361,0.748,6.406C207.773,89.769,207.565,87.553,207.137,85.656z"/>
					<path d="M219.166,133.003c0.748,1.409,1.161,2.269,1.367,2.77c0.19,0.194,0.433,0.442,0.749,0.764
						c-0.036-0.084-0.074-0.173-0.11-0.256c-0.697-1.46-1.354-2.968-2.035-4.494c-0.317-0.594-0.621-1.165-0.897-1.681
						C218.474,131.096,218.837,132.05,219.166,133.003z"/>
					<path d="M220.533,135.773C218.948,134.185,221.35,137.729,220.533,135.773L220.533,135.773z"/>
					<path d="M212.568,127.381l-0.071-0.244c-0.091-0.228-0.166-0.468-0.234-0.701C212.347,126.764,212.457,127.067,212.568,127.381
						z"/>
					<path d="M211.904,107.09c0.044,1.419,0.129,2.836,0.313,4.205c-0.277-2.833-0.334-5.748-0.513-8.183
						c-0.01,0.362-0.094,0.724-0.101,1.086C211.746,104.926,211.893,106.009,211.904,107.09z"/>
					<path d="M216.822,138.025c-0.78-1.83-1.554-3.647-2.32-5.446c-0.676-1.835-1.345-3.65-2.005-5.441
						c-0.447-1.88-0.89-3.743-1.327-5.584c-0.402-1.847-0.691-3.691-1.063-5.491c-0.716-3.621-1.047-7.224-1.339-10.585
						c-0.304-2.971-0.221-7.027-0.313-11.003c-0.072-3.979-0.464-7.884-1.431-10.507c0.039,0.59,0.077,1.149,0.113,1.689
						c-0.158-0.799-0.372-1.529-0.609-2.192c-0.248-1.695-0.662-3.298-1.109-4.857c2.511,0.088,5.001,0.175,7.492,0.263
						c-2.53,7.488-5.442,14.711-8.511,22.05c-0.562,1.347-0.761,2.449-1.323,3.795c-0.546,1.366-1.082,2.71-1.617,4.048
						c0.015,0.012,0.038,0.002,0.069-0.029c-2.157,5.566-4.123,11.062-5.792,16.901c-0.815,2.724-1.736,5.408-2.465,8.127
						c-0.281,1.019-0.598,0.936-0.854,1.6c-0.522,1.319-0.986,2.478-1.433,3.691c-0.43,1.215-0.782,2.492-1.182,4.035
						c0,0-0.157-0.029-0.235-0.044c-0.073,0.484-0.158,0.913-0.232,1.263c-0.629-1.643-0.132-5.579-1.57-1.608l-0.003,0
						c0.017-0.231,0.033-0.44,0.048-0.641c0.005-0.025,0.009-0.046,0.014-0.069l-0.009,0.003c0.061-0.988,0.027-1.604-0.112-2.238
						l-0.374,1.867c-0.086-0.139-0.181-0.237-0.303-0.195c-0.01-0.059-0.019-0.115-0.029-0.177c0.056-0.277,0.102-0.51,0.102-0.51
						c-0.042-0.103-0.089-0.182-0.14-0.24c-0.045-1.712,0.438-4.319-0.01-3.903c-0.242,0.345-0.438,1.564-0.589,2.958
						c-0.046,0.076-0.092,0.165-0.133,0.258c0.283-1.815-0.546-0.116-0.407-1.214c0.327-1.436,0.606-2.883,0.948-4.317
						c1.507-5.807,3.004-10.629,4.777-16.241c0.08-0.248,0.159-0.492,0.239-0.737c0.888-2.711,1.841-5.229,2.937-7.79l-0.062,0.572
						c0.873-2.064,1.735-4.134,2.479-6.25c1.8-5.199,3.654-10.369,5.776-15.793c1.506-3.771,2.833-7.487,4.103-11.305l2.332-7.007
						l2.096,7.162c0.602,2.057,1.154,4.19,1.459,6.364c-0.355-2.113-0.94-4.213-1.569-6.332l-1.985-6.692l-2.226,6.544
						c-0.162,0.478-0.328,0.965-0.495,1.455c-0.407,1.087-0.812,2.169-1.205,3.222c0.445-1.078,0.829-2.153,1.205-3.222l0.549-1.435
						l2.383-6.234l1.72,6.378c1.115,4.135,1.456,8.269,2.215,11.427c-0.052,0.393-0.126,0.396-0.123,0.77
						c0.058,2.648-0.102,5.239,0.151,7.462c0.08,0.003,0.041,1.107,0.213,0.745c0.003,2.212-0.103,4.752,0.022,6.895
						c0.029,0.932,0.176,1.852,0.373,2.759c0.108,1.888,0.303,3.718,0.568,5.515c0.265,1.756,0.721,3.642,1.117,5.501
						c0.353,1.879,0.928,3.711,1.444,5.583c0.468,1.884,1.188,3.726,1.824,5.626c0.152,0.475,0.309,0.966,0.469,1.467
						c0.184,0.494,0.371,0.996,0.559,1.5c0.364,1.011,0.73,2.024,1.071,2.971c-0.615-1.363-1.238-2.74-1.865-4.13
						c-0.554-1.425-1.066-2.887-1.602-4.359c-0.1-0.365-0.199-0.729-0.297-1.089c-0.079-0.366-0.158-0.728-0.236-1.088
						c-0.158-0.718-0.322-1.421-0.497-2.101c-0.354-1.359-0.756-2.627-1.114-3.789c-0.16-0.545-0.318-1.084-0.477-1.624
						c0.354,1.665,0.68,3.326,1.18,4.927c0.229,0.804,0.457,1.606,0.684,2.405l0.341,1.192l0.415,1.166
						c0.23,0.865,0.463,1.74,0.696,2.616c0.236,0.876,0.452,1.76,0.777,2.599l-0.052-0.096c-0.593-1.29-1.004-2.656-1.514-4.005
						c-0.18-0.652-0.358-1.298-0.533-1.933c-0.169-0.637-0.292-1.275-0.45-1.889c-0.303-1.231-0.636-2.395-1.022-3.459
						c-0.102-0.264-0.191-0.53-0.273-0.785c-0.159-0.545-0.318-1.088-0.476-1.628c0.381,2.075,1.018,4.069,1.567,6.057
						c0.318,1.24,0.751,2.445,1.187,3.636c0.204,0.768,0.411,1.547,0.618,2.324c-0.043-0.075-0.087-0.152-0.128-0.224
						c-0.268-0.647-1.72-2.29-1.656-1.205c0.688,2.653,1.975,5.69,2.912,8.11c0.551,1.178,1.03,2.202,1.37,2.93
						c0.167,0.366,0.3,0.657,0.391,0.857c0.089,0.201,0.133,0.313,0.124,0.317c-0.076,0.228-1.128-1.769-2.162-3.793
						c-0.925-2.064-1.789-4.166-1.772-3.984c0.149,0.509,0.298,1.018,0.446,1.523c-0.23-0.451-0.458-0.892-0.682-1.293
						c-0.218-0.493-0.431-1.084-0.634-1.631c-0.171-0.557-0.339-1.069-0.516-1.391c-0.578-1.138-1.03-2.416-1.476-3.742
						c-0.397-1.34-0.725-2.745-1.203-4.121c-0.685-1.705-1.277-3.81-1.953-5.922c-0.157,0.024-0.252-1.073-0.353-0.688
						c-0.186-1.016-0.276-2.127-0.45-3.082c-0.137-0.958-0.299-1.77-0.564-2.203l-0.023-0.15c-0.012-0.146-0.04-0.353-0.085-0.575
						c-0.043-3.457-0.415-5.871-0.622-9.007c-0.003-1.071,0.012-2.166,0.051-3.281c-0.025,0.728-0.145,1.823-0.092,2.559
						c0.014,0.243,0.028,0.484,0.042,0.722c0.01,2.786,0.167,5.461,0.417,8.119c0.054,0.216,0.141,0.564,0.204,0.888
						c0.002,0.192,0.003,0.384,0.005,0.579c0.036,0.044,0.07,0.093,0.102,0.146c0.317,2.538,0.857,5.359,1.441,7.44
						c0.234,0.989,0.418,2.002,0.634,3.018c0.251,1.009,0.487,2.03,0.713,3.056c0.242,1.022,0.409,2.066,0.693,3.076
						c0.277,1.012,0.554,2.02,0.827,3.016c-0.353-0.969-0.703-1.932-1.052-2.889c-0.369-0.952-0.605-1.933-0.915-2.887
						c0.615,2.431,1.496,4.635,2.251,6.789c0.097,0.34,0.192,0.673,0.287,1.009l0.733,2.067c-0.203-0.654-0.403-1.299-0.602-1.94
						c0.549,1.245,1.093,2.477,1.63,3.695c2.885,6.712,6.464,13.304,10.365,19.538c-0.16-0.068-0.331-0.155-0.513-0.257
						c-0.488-0.743-0.999-1.473-1.463-2.218c-0.454-0.752-0.903-1.495-1.343-2.222c-0.898-1.443-1.812-2.786-2.62-4.013
						c0.882,1.866,1.787,2.995,2.769,4.72c-0.04,0.022-0.088,0.071-0.196-0.058c0.351,0.533,0.73,1.11,1.12,1.702
						c0.405,0.587,0.82,1.19,1.228,1.782c-0.426-0.276-0.882-0.603-1.339-0.931c-0.536-0.532-1.058-1.503-1.683-2.415
						c-0.619-1.018-1.234-2.021-1.815-3.032c-0.535-1.036-1.065-2.064-1.595-3.089c-1.114-2.027-1.982-4.16-3.01-6.283
						c-0.428-0.958-0.764-1.952-1.106-2.941c-0.346-0.988-0.692-1.974-1.036-2.958c-0.672-1.973-1.171-3.991-1.771-5.957
						c0.69,1.928,1.295,3.79,2.003,5.555C215.33,134.684,216.052,136.382,216.822,138.025z M189.738,135.288
						c0.054-0.365,0.11-0.745,0.167-1.126l-0.1,0.151C189.71,134.649,189.711,135.005,189.738,135.288z M192.135,127.207
						c-0.887,2.32-1.626,5.505-2.262,8.577c0.017,0.023,0.035,0.038,0.053,0.043C190.628,133.294,191.319,130.123,192.135,127.207z
						 M196.922,118.407l-0.045,0.047l0.036,0.008L196.922,118.407z M208.434,79.675c-0.223-0.552-0.435-1.133-0.641-1.744
						c0.911,0.032,1.853,0.065,2.795,0.098c-0.69,2.452-1.687,5.191-2.646,7.937c-0.396,1.03-0.525,2.16-1.074,3.525
						c-0.613,1.735-0.889,2.808-1.377,4.195l0.569-0.957c-1.055,2.344-1.177,3.881-2.312,6.179c0.074,0.031,0.08,0.429-0.061,0.767
						c-0.63,1.716-1.479,3.339-1.894,4.747c-0.616,1.713-1.312,3.393-1.711,4.8c-0.135,0.338-0.182,1.099-0.377,1.802l-0.913,2.49
						l0.098-0.078c0.267-0.667,0.533-1.348,0.754-2.045c0.65-2.079,1.475-4.492,2.23-6.54c1.947-5.109,3.654-9.956,5.298-14.838
						c0.34-1.051,0.608-2.133,0.945-3.184c0.425-1.501,0.999-3.112,1.498-4.642c0.487-1.536,0.918-2.978,1.1-4.111
						c-1.079-0.038-2.155-0.076-3.055-0.107c0.069,0.153,0.135,0.28,0.201,0.401C208.025,78.689,208.193,79.368,208.434,79.675z
						 M212.521,83.166c-0.37-2.002-0.955-4.097-1.559-6.138l-1.641-5.548l-1.831,5.426c-0.631,1.87-1.265,3.709-1.958,5.365
						c-1.019,2.717-3.778,10.65-2.341,9.668c-0.125-2.331,2.996-9.495,4.848-14.834l1.291-3.721l1.072,3.804
						C211.555,81.283,211.849,84.353,212.521,83.166z M214.391,113.472c-0.147-0.698-0.283-1.39-0.363-2.121
						c-0.099-0.725-0.174-1.481-0.19-2.315c0.055,0.757,0.135,1.502,0.233,2.237C214.147,112.016,214.262,112.746,214.391,113.472z
						 M210.986,98.345c0.379,4.766,0.262,9.878,1.022,14.464c0.284,1.793,0.576,3.638,0.863,5.452
						c0.157,0.91,0.275,1.817,0.507,2.671c0.237,0.853,0.501,1.67,0.814,2.428l0.234-0.052l-0.156-0.331
						c-0.208-1.243-0.37-2.241-0.443-3.299l0.05,0.178l-0.063-0.312c-0.07-0.702-0.174-1.423-0.368-2.244
						c-0.097-0.376-0.196-0.758-0.295-1.141c-0.914-4.358-1.039-8.908-1.446-13.048c-0.169-2.547-0.473-4.758-0.63-7.327
						C211.053,96.515,210.931,97.61,210.986,98.345z"/>
					<path d="M214.757,131.609c0.548,1.479,1.222,2.925,1.819,4.406c0.256,0.562,0.5,1.125,0.769,1.677l0.873,1.623
						c0.686,1.29,1.293,2.677,2.017,4.049c0.737,1.366,1.471,2.773,2.203,4.195c1.595,2.773,3.185,5.617,5.019,8.143
						c0.297,0.026,0.508-0.088,0.594-0.41c-3.44-5.755-7.007-11.488-9.345-17.796l-0.086-0.135c-0.735-1.251-1.422-3.012-2.161-4.85
						c-0.702-1.851-1.27-3.841-1.984-5.517c-0.708-1.679-1.198-3.428-1.759-5.164c-0.292-0.867-0.509-1.751-0.722-2.637
						c-0.229-0.881-0.459-1.764-0.691-2.656c0.216,1.3,0.43,2.584,0.642,3.86c0.248,1.268,0.579,2.51,0.859,3.758
						C213.317,126.666,214.127,129.086,214.757,131.609z"/>
					<path d="M207.144,89.546c0.073,1.368,0.107,2.765,0.134,4.182c0.097,3.959,0.137,7.576,0.378,11.321
						c-0.013-2.751,0.087-5.471,0.178-8.177C207.834,94.164,207.505,91.878,207.144,89.546z"/>
					<path d="M207.9,108.096c-0.09-1.028-0.184-2.045-0.244-3.047c0.008,2.037,0.065,4.085,0.242,6.147
						c0.145,2.058,0.478,4.141,0.859,6.1c0.367,1.623,0.627,3.259,1.078,4.862l1.318,4.801c0.519,1.576,1.074,3.139,1.615,4.7
						l0.412,1.168l0.483,1.143l0.973,2.278c0.286,0.693,0.57,1.379,0.851,2.06c-4.223-11.49-6.709-23.523-7.246-34.076
						c-0.015-0.193-0.032-0.404-0.048-0.607c-0.036,2.469,0.025,4.961,0.217,7.452c0.09,1.248,0.246,2.493,0.427,3.733
						c0.195,1.225,0.439,2.419,0.657,3.627c-0.35-1.689-0.742-3.354-0.999-5.114C208.226,111.581,208.051,109.835,207.9,108.096z"/>
					<path d="M214.243,130.169c0.095,0.341,0.189,0.677,0.284,1.014c0.141,0.383,0.28,0.759,0.419,1.136
						c-0.072-0.235-0.125-0.476-0.188-0.711C214.585,131.127,214.414,130.646,214.243,130.169z"/>
					<path d="M213.827,119.678l-0.013-0.134c-0.218-1.113-0.44-2.244-0.664-3.385c-0.411-1.575-0.741-3.172-0.933-4.865
						C212.486,114.331,213.188,117.354,213.827,119.678z"/>
					<path d="M214.521,109.842c-0.011-0.345-0.032-1.033-0.043-1.38l-0.163-0.626c0.005,0.324,0.009,0.651,0.014,0.978
						L214.521,109.842z"/>
					<path d="M213.496,88.365c0.497,6.709,0.256,12.844,0.636,18.63c0.061,0.277,0.122,0.558,0.184,0.839
						c0.001-3.855,0.097-7.826-0.221-11.586c-0.059-0.744-0.267-1.865-0.249-2.607c-0.008-3.532-0.31-6.972-0.94-10.388
						c0.264,1.638,0.441,3.291,0.579,4.97L213.496,88.365z"/>
				</g>
			</g>
		</g>
	</g>
	<g>
		<g>
			<g>
				<g>
					<path d="M195.397,123.455c-0.034-0.001-0.066-0.003-0.066-0.003l0,0.079L195.397,123.455z"/>
					<polygon points="195.474,122.5 195.453,122.499 195.456,122.564 					"/>
					<path d="M195.332,123.534c0.003,0.292,0.026,0.585-0.008,0.876c-0.035-0.002-0.105-0.005-0.14-0.006
						c-0.035,0.158-0.001,0.319-0.001,0.479c-0.034-0.002-0.068-0.003-0.068,0.077c-0.024,0.209,0.016,0.349,0.079,0.402
						C195.337,124.473,195.742,124.171,195.332,123.534z"/>
					<path d="M195.633,122.906l-0.195-0.008c-0.023,0.182-0.051,0.364-0.034,0.548C195.504,123.316,195.568,123.164,195.633,122.906
						z"/>
					<path d="M211.95,122.63c-0.015-0.047-0.019-0.072,0.04-0.015L211.95,122.63c0.014,0.044,0.037,0.106,0.027,0.139
						c0.118-0.128,0.258-0.257,0.412-0.327l-0.028-0.258c-0.381,0.158-0.77,0.268-0.99,0.772
						C211.608,122.889,211.73,122.709,211.95,122.63z"/>
					<path d="M212.224,121.724l0.038-0.014C212.202,121.652,212.207,121.677,212.224,121.724z"/>
					<path d="M205.225,124.396c-0.254,0.054-0.488,0.317-0.73,0.57c0.495-0.202,0.983-0.274,1.36-0.576
						C205.639,124.416,205.436,124.404,205.225,124.396z"/>
					<path d="M203.278,125.947c0.312,0.169,0.597-0.014,0.868-0.269c-0.269,0.053-0.531,0.104-0.785,0.154
						C203.333,125.87,203.308,125.906,203.278,125.947z"/>
					<path d="M203.676,125.472c0.293,0.022,0.561-0.236,0.819-0.506C204.216,125.078,203.937,125.229,203.676,125.472z"/>
					<path d="M208.678,118.099c0.1-0.244,0.161-0.353,0.202-0.384c0.003-0.112,0.006-0.25,0.009-0.423l-0.022,0.002
						c-0.105,0.156-0.22,0.3-0.34,0.438c-0.042,0.107-0.082,0.222-0.112,0.358C208.504,118.1,208.592,118.107,208.678,118.099z"/>
					<path d="M208.88,117.714C208.865,118.675,209.042,117.595,208.88,117.714L208.88,117.714z"/>
					<polygon points="208.527,122.808 208.499,122.813 208.423,122.877 					"/>
					<path d="M206.282,120.646c0.145-0.034,0.29-0.094,0.43-0.173c-0.291,0.089-0.586,0.178-0.84,0.42
						c0.037-0.001,0.073,0.079,0.11,0.078C206.059,120.81,206.171,120.648,206.282,120.646z"/>
					<path d="M209.67,121.913c-0.389,0.254-0.777,0.561-1.171,0.899c-0.854,0.155-1.65,0.28-2.422,0.969
						c-0.692,0.648-1.822,0.387-2.61,1.628c0.071,0.039,0.14,0.058,0.208,0.063c-0.109,0.102-0.214,0.221-0.316,0.361
						c-1.096,0.17-2.237,0.231-3.254,0.109c-0.155-0.018-0.298,0.207-0.453,0.189l-0.47-0.009c-0.003,0.018-0.003,0.036,0,0.053
						c-0.66,0.023-1.22,0.141-1.863,0.339c-0.293,0.051-0.578-0.059-0.823-0.061c-0.096-0.003-0.078-0.322-0.14-0.404
						c-0.241-0.408-0.432-0.736-0.734-0.908c0,0,0.003-0.16,0.005-0.239c-0.048,0.025-0.09,0.021-0.124-0.006
						c0.158-0.889,0.573-1.191,0.164-1.827l0-0.003l0.067-0.076l0.007,0l0-0.009c0.104-0.13,0.17-0.282,0.24-0.54l-0.198-0.008
						c0.015-0.111,0.026-0.223,0.022-0.335l0.019-0.063c0.03,0.001,0.055,0.002,0.055,0.002l0.027-0.183
						c0.186-0.336,0.479-0.503,0.439-0.836c-0.035-0.172-0.176-0.03-0.329,0.066c-0.008-0.03-0.018-0.059-0.028-0.081
						c0.202-0.072,0.018-0.558,0.141-0.633c0.162,0.006,0.328-0.068,0.491-0.061c0.669,0.013,1.211,0.006,1.876-0.176
						c0.031-0.007,0.058-0.013,0.087-0.02c0.32-0.069,0.618-0.06,0.913,0.033c-0.027,0.052-0.052,0.101-0.076,0.147
						c0.234,0.078,0.471,0.123,0.724,0.03c0.618-0.252,1.256-0.495,1.872-0.512c0.643-0.001,1.281-0.095,1.939-0.307
						c-0.269,0.162-0.554,0.287-0.829,0.316c-0.121-0.021-0.242-0.037-0.361-0.033c0.12,0.038,0.24,0.045,0.361,0.033
						c0.468,0.088,0.942,0.219,1.335-0.514c0.033,0.068,0.027,0.148,0.064,0.15c0.254,0.015,0.507,0.11,0.739-0.196
						c0.004-0.08,0.112-0.073,0.083-0.235c0.214-0.073,0.479-0.038,0.678-0.21c0.088-0.054,0.177-0.209,0.264-0.398
						c0.7-0.449,1.401-0.845,1.949-1.37c0.147-0.096,0.324-0.121,0.481-0.139c-0.188,0.289-0.405,0.539-0.641,0.771
						c-0.253-0.022-0.481,0.017-0.692,0.415c-0.051,0.076-0.1,0.148-0.145,0.216c0.153-0.091,0.308-0.177,0.451-0.278
						c0.133-0.114,0.262-0.231,0.386-0.353c0.15,0.014,0.308,0.048,0.457,0.033l-0.007,0.018c-0.102,0.116-0.21,0.228-0.321,0.334
						c-0.239-0.028-0.438,0.02-0.631,0.306c-0.024,0.036-0.048,0.076-0.07,0.122c-0.052,0.076-0.101,0.148-0.148,0.216
						c0.195-0.108,0.387-0.22,0.547-0.372c0.098-0.089,0.198-0.178,0.302-0.272l0.209,0.024l-0.014,0.064
						c-0.045,0.086-0.118,1.041,0.004,1.267c0.506-0.094,1.144-0.529,1.143-0.474c0.119,0.331-0.699,0.832-0.659,0.915
						c0.055,0.029,0.11,0.053,0.164,0.072c-0.038,0.07-0.075,0.142-0.108,0.222c-0.093,0.092-0.242,0.031-0.292,0.198
						c-0.191,0.507-0.496,0.386-0.762,0.742c-0.166,0.245-0.384,0.567-0.603,0.89c0.006,0.159-0.115,0.081-0.07,0.241
						c-0.223,0.004-0.478,0.008-0.57,0.475l-0.016,0.013c-0.016,0-0.039,0.027-0.063,0.064c-0.376-0.082-0.648,0.385-1.006,0.669
						c-0.12,0.034-0.242,0.053-0.367,0.046c0.081,0.005,0.2,0.092,0.285,0.017l0.082-0.063c0.311-0.083,0.618-0.319,0.908-0.491
						c0.024-0.048,0.062-0.124,0.097-0.178c0.021,0.004,0.042,0.009,0.063,0.016c0.006-0.033,0.011-0.064,0.016-0.093
						c0.275-0.233,0.582-0.321,0.803-0.559c0.424-0.258,0.881-0.199,1.327-0.209c-0.202,0.16-0.406,0.332-0.611,0.513
						c0.261-0.171,0.5-0.34,0.723-0.519l0.112-0.01l0.233-0.03c-0.078-0.026-0.153-0.043-0.227-0.057
						c0.132-0.11,0.259-0.223,0.38-0.345c0.175-0.116,0.35-0.221,0.526-0.312c0.168-0.119,0.337-0.225,0.508-0.314
						c0.342-0.18,0.692-0.296,1.07-0.336l0.045,0.288c-0.34,0.144-0.685,0.241-0.879,0.737c0.212-0.059,0.32-0.235,0.516-0.307
						c0.013,0.044,0.034,0.107,0.025,0.139c0.105-0.123,0.229-0.247,0.366-0.312c0.019,0.209,0.029,0.418,0.038,0.629
						c-0.029,0.174-0.146,0.207-0.241,0.316c-0.476,0.258-0.96,0.411-1.446,0.662c-0.47,0.031-0.936,0.06-1.388,0.132
						C208.956,122.528,209.333,122.248,209.67,121.913z M196.435,123.428c0.039-0.032,0.08-0.069,0.121-0.11l-0.014-0.056
						C196.506,123.261,196.467,123.334,196.435,123.428z M197.29,123.554c-0.253-0.17-0.591,0.009-0.912,0.119
						c-0.002,0.022-0.004,0.043-0.006,0.061C196.634,123.823,196.959,123.624,197.29,123.554z M198.163,125.302l-0.004-0.027
						l-0.003,0.036L198.163,125.302z M203.177,123.28c-0.354,0.364-0.754,0.323-1.17,0.441c-0.12-0.012-0.273,0.293-0.434,0.276
						c-0.208,0.058-0.352,0.205-0.515,0.266l0.099,0.172c-0.264-0.11-0.473,0.348-0.727,0.158c-0.009,0.08-0.066,0.234-0.104,0.229
						c-0.203,0.057-0.379-0.124-0.552,0.017c-0.203,0.057-0.397,0.035-0.57,0.175c-0.039-0.004-0.143,0.225-0.229,0.296
						c-0.102,0.017-0.191,0.031-0.281,0.046l0.004,0.064c0.074,0.011,0.143,0.007,0.23-0.036c0.25-0.132,0.539-0.26,0.781-0.312
						c0.606-0.093,1.166-0.344,1.772-0.604c0.13-0.066,0.268-0.213,0.397-0.28c0.395-0.28,0.828-0.156,1.119-0.687
						C203.043,123.427,203.123,123.435,203.177,123.28z M203.911,119.872c-0.423,0.308-0.891,0.407-1.263,0.304
						c-0.304-0.031-1.238,0.354-1.195,1.321C202.025,119.807,204.023,121.733,203.911,119.872z M206.909,118.502
						c-0.135,0.127-0.27,0.243-0.429,0.246C206.625,118.664,206.768,118.583,206.909,118.502z M205.346,121.745
						c0.527-0.509,1.048-0.631,1.526-0.949c0.356-0.252,0.794,0.163,1.075-0.43l-0.018-0.239l-0.028,0.084
						c-0.122-0.024-0.237-0.165-0.343-0.226l0.017-0.021l-0.031,0.013c-0.072-0.04-0.145-0.051-0.226,0.013l-0.112,0.113
						c-0.444,0.147-0.902,0.279-1.334,0.789c-0.269,0.231-0.514,0.611-0.797,0.836C205.152,121.733,205.265,121.82,205.346,121.745z
						"/>
					<path d="M208.927,121.82c0.154-0.118,0.307-0.231,0.46-0.333c0.113-0.114,0.221-0.233,0.325-0.362
						c0.501-0.527,1.162-0.609,1.703-0.942c-0.06-0.226-0.137-0.453-0.239-0.681c-0.684-0.11-1.138,0.544-1.819,0.497l-0.011,0.027
						c-0.199,0.506-0.681,0.407-0.998,0.85c-0.314,0.539-0.689,0.714-1.062,1.11C207.857,122.002,208.364,121.748,208.927,121.82z"
						/>
					<path d="M204.146,125.678c0.169-0.038,0.341-0.077,0.517-0.117c0.489-0.17,0.898-0.356,1.351-0.66
						c-0.33,0.056-0.634,0.049-0.951,0.034C204.744,125.001,204.455,125.387,204.146,125.678z"/>
					<path d="M206.371,124.655c-0.125,0.086-0.243,0.167-0.357,0.246c0.48-0.068,0.953-0.171,1.418-0.284
						c0.748-0.301,1.523-0.747,2.206-1.242c0.079-0.054,0.157-0.099,0.236-0.139c-0.703,0.037-1.399,0.111-2.055,0.241
						c-0.654,0.104-1.28,0.344-1.891,0.855l-0.071,0.059c0.576-0.062,1.142-0.187,1.696-0.324
						C207.165,124.244,206.773,124.43,206.371,124.655z"/>
					<polygon points="208.777,121.934 208.89,121.929 209.008,121.832 208.927,121.82 					"/>
					<path d="M207.557,119.986c-0.005-0.003-0.014-0.008-0.014-0.008c-0.11,0.047-0.223,0.087-0.338,0.126
						c-0.155,0.147-0.321,0.273-0.493,0.369C207.025,120.377,207.334,120.279,207.557,119.986z"/>
					<path d="M206.556,118.087c-0.032,0.001-0.097,0.002-0.129,0.002l-0.059,0.145l0.092,0.014L206.556,118.087z"/>
					<path d="M204.46,119.307c0.651-0.289,1.299-0.525,1.827-0.889c0.025-0.058,0.052-0.12,0.079-0.183
						c-0.35-0.029-0.729,0.054-1.114,0.466c-0.074,0.075-0.194,0.308-0.266,0.304c-0.343,0.055-0.685,0.289-1.032,0.5
						c0.162-0.058,0.326-0.121,0.492-0.192L204.46,119.307z"/>
				</g>
			</g>
		</g>
	</g>
</g>
</svg>
